<svg width="74" height="32" viewBox="0 0 74 32" fill="none" xmlns="http://www.w3.org/2000/svg">
<path d="M0.304 24V0.159998H4.656V20.16H14.864V24H0.304ZM24.879 24.384C23.1723 24.384 21.615 23.9893 20.207 23.2C18.8203 22.4107 17.711 21.3333 16.879 19.968C16.0683 18.6027 15.663 17.0453 15.663 15.296C15.663 13.5467 16.0683 11.9893 16.879 10.624C17.711 9.25867 18.8203 8.18133 20.207 7.392C21.5937 6.60266 23.151 6.208 24.879 6.208C26.5857 6.208 28.1323 6.60266 29.519 7.392C30.9057 8.18133 32.0043 9.25867 32.815 10.624C33.647 11.968 34.063 13.5253 34.063 15.296C34.063 17.0453 33.647 18.6027 32.815 19.968C31.983 21.3333 30.8737 22.4107 29.487 23.2C28.1003 23.9893 26.5643 24.384 24.879 24.384ZM24.879 20.544C25.8177 20.544 26.639 20.32 27.343 19.872C28.0683 19.424 28.6337 18.8053 29.039 18.016C29.4657 17.2053 29.679 16.2987 29.679 15.296C29.679 14.272 29.4657 13.376 29.039 12.608C28.6337 11.8187 28.0683 11.2 27.343 10.752C26.639 10.2827 25.8177 10.048 24.879 10.048C23.919 10.048 23.0763 10.2827 22.351 10.752C21.6257 11.2 21.0497 11.8187 20.623 12.608C20.2177 13.376 20.015 14.272 20.015 15.296C20.015 16.2987 20.2177 17.2053 20.623 18.016C21.0497 18.8053 21.6257 19.424 22.351 19.872C23.0763 20.32 23.919 20.544 24.879 20.544Z" fill="#2C3849"/>
<path d="M44.73 31.04C43.4287 31.04 42.2233 30.8267 41.114 30.4C40.0047 29.9733 39.0447 29.376 38.234 28.608C37.4447 27.8613 36.8687 26.976 36.506 25.952L40.41 24.48C40.666 25.2907 41.1673 25.9413 41.914 26.432C42.682 26.944 43.6207 27.2 44.73 27.2C45.5833 27.2 46.33 27.04 46.97 26.72C47.6313 26.4 48.1433 25.9307 48.506 25.312C48.8687 24.7147 49.05 23.9893 49.05 23.136V19.168L49.85 20.128C49.2527 21.1733 48.4527 21.9627 47.45 22.496C46.4473 23.0293 45.306 23.296 44.026 23.296C42.4047 23.296 40.954 22.9227 39.674 22.176C38.394 21.4293 37.3913 20.4053 36.666 19.104C35.9407 17.8027 35.578 16.3413 35.578 14.72C35.578 13.0773 35.9407 11.616 36.666 10.336C37.3913 9.056 38.3833 8.05333 39.642 7.328C40.9007 6.58133 42.33 6.208 43.93 6.208C45.2313 6.208 46.3727 6.48533 47.354 7.04C48.3567 7.57333 49.1887 8.352 49.85 9.376L49.274 10.432V6.592H53.242V23.136C53.242 24.6507 52.8687 26.0053 52.122 27.2C51.3967 28.3947 50.394 29.3333 49.114 30.016C47.8553 30.6987 46.394 31.04 44.73 31.04ZM44.538 19.424C45.434 19.424 46.2127 19.232 46.874 18.848C47.5567 18.4427 48.09 17.888 48.474 17.184C48.858 16.48 49.05 15.6693 49.05 14.752C49.05 13.856 48.8473 13.056 48.442 12.352C48.058 11.6267 47.5247 11.0613 46.842 10.656C46.1807 10.2507 45.4127 10.048 44.538 10.048C43.6633 10.048 42.874 10.2507 42.17 10.656C41.466 11.0613 40.9113 11.6267 40.506 12.352C40.122 13.056 39.93 13.856 39.93 14.752C39.93 15.648 40.122 16.448 40.506 17.152C40.9113 17.856 41.4553 18.4107 42.138 18.816C42.842 19.2213 43.642 19.424 44.538 19.424ZM64.709 24.384C63.0023 24.384 61.445 23.9893 60.037 23.2C58.6503 22.4107 57.541 21.3333 56.709 19.968C55.8983 18.6027 55.493 17.0453 55.493 15.296C55.493 13.5467 55.8983 11.9893 56.709 10.624C57.541 9.25867 58.6503 8.18133 60.037 7.392C61.4237 6.60266 62.981 6.208 64.709 6.208C66.4157 6.208 67.9623 6.60266 69.349 7.392C70.7357 8.18133 71.8343 9.25867 72.645 10.624C73.477 11.968 73.893 13.5253 73.893 15.296C73.893 17.0453 73.477 18.6027 72.645 19.968C71.813 21.3333 70.7037 22.4107 69.317 23.2C67.9303 23.9893 66.3943 24.384 64.709 24.384ZM64.709 20.544C65.6477 20.544 66.469 20.32 67.173 19.872C67.8983 19.424 68.4637 18.8053 68.869 18.016C69.2957 17.2053 69.509 16.2987 69.509 15.296C69.509 14.272 69.2957 13.376 68.869 12.608C68.4637 11.8187 67.8983 11.2 67.173 10.752C66.469 10.2827 65.6477 10.048 64.709 10.048C63.749 10.048 62.9063 10.2827 62.181 10.752C61.4557 11.2 60.8797 11.8187 60.453 12.608C60.0477 13.376 59.845 14.272 59.845 15.296C59.845 16.2987 60.0477 17.2053 60.453 18.016C60.8797 18.8053 61.4557 19.424 62.181 19.872C62.9063 20.32 63.749 20.544 64.709 20.544Z" fill="#3267B1"/>
</svg>
