<svg width="20" height="16" viewBox="0 0 20 16" fill="none" xmlns="http://www.w3.org/2000/svg">
<path d="M18.4688 6.03123H16.1719V5.7031C16.1719 5.61608 16.1373 5.53262 16.0758 5.47108C16.0142 5.40954 15.9308 5.37498 15.8438 5.37498H10.5938C10.5067 5.37498 10.4233 5.40954 10.3617 5.47108C10.3002 5.53262 10.2656 5.61608 10.2656 5.7031V6.03123H4.35938V2.09372C4.35938 1.74563 4.49766 1.41179 4.7438 1.16565C4.98994 0.919505 5.32378 0.781224 5.67188 0.781224C5.97814 0.781073 6.27538 0.884853 6.515 1.07559C6.75461 1.26633 6.92241 1.53273 6.99094 1.83122C7.00834 1.91651 7.05891 1.99138 7.13152 2.03938C7.20414 2.08738 7.29284 2.10457 7.37813 2.08716C7.46341 2.06976 7.53829 2.01919 7.58628 1.94657C7.63428 1.87396 7.65147 1.78526 7.63406 1.69997C7.53761 1.25204 7.2899 0.850958 6.93257 0.564139C6.57524 0.277319 6.13007 0.122243 5.67188 0.124974C5.14973 0.124974 4.64897 0.332396 4.27976 0.701608C3.91055 1.07082 3.70312 1.57158 3.70312 2.09372V6.03123H1.40625C1.14518 6.03123 0.894798 6.13494 0.710192 6.31954C0.525586 6.50415 0.421875 6.75453 0.421875 7.0156V9.6406C0.423178 10.7715 0.873009 11.8557 1.67269 12.6554C2.47236 13.4551 3.55659 13.9049 4.6875 13.9062H5.01562V15.5469C5.01562 15.6339 5.05019 15.7173 5.11173 15.7789C5.17327 15.8404 5.25673 15.875 5.34375 15.875C5.43077 15.875 5.51423 15.8404 5.57577 15.7789C5.63731 15.7173 5.67188 15.6339 5.67188 15.5469V13.9062H14.2031V15.5469C14.2031 15.6339 14.2377 15.7173 14.2992 15.7789C14.3608 15.8404 14.4442 15.875 14.5312 15.875C14.6183 15.875 14.7017 15.8404 14.7633 15.7789C14.8248 15.7173 14.8594 15.6339 14.8594 15.5469V13.9062H15.1875C16.3184 13.9049 17.4026 13.4551 18.2023 12.6554C19.002 11.8557 19.4518 10.7715 19.4531 9.6406V7.0156C19.4531 6.75453 19.3494 6.50415 19.1648 6.31954C18.9802 6.13494 18.7298 6.03123 18.4688 6.03123ZM10.9219 6.03123H15.5156V9.31248H10.9219V6.03123ZM18.7969 9.6406C18.7958 10.5975 18.4152 11.515 17.7385 12.1916C17.0619 12.8683 16.1444 13.2489 15.1875 13.25H4.6875C3.73057 13.2489 2.81314 12.8683 2.13649 12.1916C1.45983 11.515 1.07921 10.5975 1.07812 9.6406V7.0156C1.07812 6.92858 1.1127 6.84512 1.17423 6.78358C1.23577 6.72205 1.31923 6.68748 1.40625 6.68748H10.2656V9.6406C10.2656 9.72762 10.3002 9.81108 10.3617 9.87262C10.4233 9.93416 10.5067 9.96873 10.5938 9.96873H15.8438C15.9308 9.96873 16.0142 9.93416 16.0758 9.87262C16.1373 9.81108 16.1719 9.72762 16.1719 9.6406V6.68748H18.4688C18.5558 6.68748 18.6392 6.72205 18.7008 6.78358C18.7623 6.84512 18.7969 6.92858 18.7969 7.0156V9.6406Z" fill="#575959"/>
</svg>
