<svg width="20" height="14" viewBox="0 0 20 14" fill="none" xmlns="http://www.w3.org/2000/svg">
<path d="M16.5312 2.73431H1.10938V0.437439C1.10938 0.350415 1.0748 0.266955 1.01327 0.20542C0.951734 0.143884 0.868274 0.109314 0.78125 0.109314C0.694226 0.109314 0.610766 0.143884 0.549231 0.20542C0.487695 0.266955 0.453125 0.350415 0.453125 0.437439V13.5624C0.453125 13.6495 0.487695 13.7329 0.549231 13.7945C0.610766 13.856 0.694226 13.8906 0.78125 13.8906C0.868274 13.8906 0.951734 13.856 1.01327 13.7945C1.0748 13.7329 1.10938 13.6495 1.10938 13.5624V10.6093H18.8281V13.5624C18.8281 13.6495 18.8627 13.7329 18.9242 13.7945C18.9858 13.856 19.0692 13.8906 19.1562 13.8906C19.2433 13.8906 19.3267 13.856 19.3883 13.7945C19.4498 13.7329 19.4844 13.6495 19.4844 13.5624V5.68744C19.4844 4.90422 19.1732 4.15308 18.6194 3.59926C18.0656 3.04545 17.3145 2.73431 16.5312 2.73431ZM1.10938 3.39056H7.67188V9.95306H1.10938V3.39056ZM8.32812 9.95306V3.39056H16.5312C16.8329 3.39056 17.1316 3.44997 17.4102 3.5654C17.6889 3.68083 17.9421 3.85002 18.1554 4.0633C18.3687 4.27659 18.5379 4.52979 18.6533 4.80846C18.7687 5.08713 18.8281 5.38581 18.8281 5.68744V9.95306H8.32812Z" fill="#575959"/>
</svg>
