<svg width="19" height="21" viewBox="0 0 19 21" fill="none" xmlns="http://www.w3.org/2000/svg">
<path d="M3 4C3 3.73478 3.10536 3.48043 3.29289 3.29289C3.48043 3.10536 3.73478 3 4 3H12C12.2652 3 12.5196 3.10536 12.7071 3.29289C12.8946 3.48043 13 3.73478 13 4V6C13 6.26522 12.8946 6.51957 12.7071 6.70711C12.5196 6.89464 12.2652 7 12 7H4C3.73478 7 3.48043 6.89464 3.29289 6.70711C3.10536 6.51957 3 6.26522 3 6V4ZM4.5 5.5H11.5V4.5H4.5V5.5ZM0 2.5C0 1.83696 0.263392 1.20107 0.732233 0.732233C1.20107 0.263392 1.83696 0 2.5 0H14C14.3283 0 14.6534 0.0646644 14.9567 0.190301C15.26 0.315938 15.5356 0.500087 15.7678 0.732233C15.9999 0.964379 16.1841 1.23998 16.3097 1.54329C16.4353 1.84661 16.5 2.1717 16.5 2.5V9.732C16.0251 9.48451 15.5212 9.29707 15 9.174V2.5C15 2.23478 14.8946 1.98043 14.7071 1.79289C14.5196 1.60536 14.2652 1.5 14 1.5H2.5C2.23478 1.5 1.98043 1.60536 1.79289 1.79289C1.60536 1.98043 1.5 2.23478 1.5 2.5V16H7.019C7.059 16.52 7.159 17.022 7.313 17.5H1.5C1.5 17.7652 1.60536 18.0196 1.79289 18.2071C1.98043 18.3946 2.23478 18.5 2.5 18.5H7.732C8.0183 19.0486 8.38128 19.5537 8.81 20H2.5C1.83696 20 1.20107 19.7366 0.732233 19.2678C0.263392 18.7989 0 18.163 0 17.5V2.5ZM19 15.5C19 14.0413 18.4205 12.6424 17.3891 11.6109C16.3576 10.5795 14.9587 10 13.5 10C12.0413 10 10.6424 10.5795 9.61091 11.6109C8.57946 12.6424 8 14.0413 8 15.5C8 16.9587 8.57946 18.3576 9.61091 19.3891C10.6424 20.4205 12.0413 21 13.5 21C14.9587 21 16.3576 20.4205 17.3891 19.3891C18.4205 18.3576 19 16.9587 19 15.5ZM14 16L14.001 18.503C14.001 18.6356 13.9483 18.7628 13.8546 18.8566C13.7608 18.9503 13.6336 19.003 13.501 19.003C13.3684 19.003 13.2412 18.9503 13.1474 18.8566C13.0537 18.7628 13.001 18.6356 13.001 18.503V16H10.496C10.3634 16 10.2362 15.9473 10.1424 15.8536C10.0487 15.7598 9.996 15.6326 9.996 15.5C9.996 15.3674 10.0487 15.2402 10.1424 15.1464C10.2362 15.0527 10.3634 15 10.496 15H13V12.5C13 12.3674 13.0527 12.2402 13.1464 12.1464C13.2402 12.0527 13.3674 12 13.5 12C13.6326 12 13.7598 12.0527 13.8536 12.1464C13.9473 12.2402 14 12.3674 14 12.5V15H16.497C16.6296 15 16.7568 15.0527 16.8506 15.1464C16.9443 15.2402 16.997 15.3674 16.997 15.5C16.997 15.6326 16.9443 15.7598 16.8506 15.8536C16.7568 15.9473 16.6296 16 16.497 16H14Z" fill="#3267B1"/>
</svg>
