<svg width="24" height="24" viewBox="0 0 24 24" fill="none" xmlns="http://www.w3.org/2000/svg">
<path d="M18.618 7.46174L6.403 2.08474C6.15859 1.97759 5.88165 1.97183 5.633 2.06874C5.51012 2.11742 5.39809 2.18993 5.30335 2.28209C5.20861 2.37425 5.13305 2.48425 5.081 2.60574L2.081 9.60574C1.97653 9.84948 1.97315 10.1247 2.07161 10.371C2.17006 10.6172 2.36228 10.8142 2.606 10.9187L9.563 13.8997L8.323 16.9997H4V13.9997H2V21.9997H4V18.9997H8.323C9.146 18.9997 9.875 18.5057 10.179 17.7417L11.401 14.6877L14.82 16.1527C15.0626 16.257 15.3367 16.2611 15.5823 16.164C15.8279 16.067 16.0252 15.8767 16.131 15.6347L19.131 8.77774C19.2371 8.53516 19.2427 8.26038 19.1466 8.01368C19.0504 7.76698 18.8603 7.56848 18.618 7.46174ZM19.93 16.3717L18.072 15.6297L20.07 10.6297L21.928 11.3707L19.93 16.3717Z" fill="#717171"/>
</svg>
