<svg width="29" height="29" viewBox="0 0 29 29" fill="none" xmlns="http://www.w3.org/2000/svg">
<path d="M7.66819 18.2691V8.46384H19.4856L20.7472 7.18628H6.39062V18.2691H7.66819Z" fill="#3267B1"/>
<path d="M4.79227 5.5889H23.9557V18.3645H25.5527V5.18966C25.5527 4.872 25.4265 4.56736 25.2019 4.34275C24.9772 4.11813 24.6726 3.99194 24.3549 3.99194H4.39303C4.07537 3.99194 3.77073 4.11813 3.54611 4.34275C3.3215 4.56736 3.19531 4.872 3.19531 5.18966V18.3645H4.79227V5.5889Z" fill="#3267B1"/>
<path d="M0.796875 19.9617V22.6765C0.796875 23.2271 1.0156 23.7551 1.40493 24.1445C1.79427 24.5338 2.32231 24.7525 2.87291 24.7525H25.8211C26.3717 24.7525 26.8998 24.5338 27.2891 24.1445C27.6784 23.7551 27.8972 23.2271 27.8972 22.6765V19.9617H0.796875ZM26.3481 22.6765C26.3481 22.8036 26.2977 22.9254 26.2078 23.0153C26.118 23.1051 25.9961 23.1556 25.869 23.1556H2.84098C2.71391 23.1556 2.59206 23.1051 2.50221 23.0153C2.41236 22.9254 2.36189 22.8036 2.36189 22.6765V21.1833H10.3067C10.4066 21.4189 10.5732 21.62 10.786 21.7619C10.9989 21.9038 11.2486 21.9803 11.5044 21.9818H17.1976C17.4534 21.9803 17.7031 21.9038 17.916 21.7619C18.1288 21.62 18.2955 21.4189 18.3953 21.1833H26.3481V22.6765Z" fill="#3267B1"/>
</svg>
