<svg width="17" height="32" viewBox="0 0 17 32" fill="none" xmlns="http://www.w3.org/2000/svg">
<path fill-rule="evenodd" clip-rule="evenodd" d="M11.8579 3.52324C11.8579 4.45766 11.4938 5.35381 10.8456 6.01455C10.1974 6.67528 9.3182 7.04648 8.40149 7.04648C7.48478 7.04648 6.60562 6.67528 5.95741 6.01455C5.3092 5.35381 4.94504 4.45766 4.94504 3.52324C4.94504 2.58882 5.3092 1.69267 5.95741 1.03193C6.60562 0.371197 7.48478 0 8.40149 0C9.3182 0 10.1974 0.371197 10.8456 1.03193C11.4938 1.69267 11.8579 2.58882 11.8579 3.52324ZM10.3217 3.52324C10.3217 4.04236 10.1194 4.54022 9.75932 4.9073C9.3992 5.27438 8.91078 5.4806 8.40149 5.4806C7.89221 5.4806 7.40379 5.27438 7.04367 4.9073C6.68355 4.54022 6.48124 4.04236 6.48124 3.52324C6.48124 3.00412 6.68355 2.50626 7.04367 2.13918C7.40379 1.77211 7.89221 1.56588 8.40149 1.56588C8.91078 1.56588 9.3992 1.77211 9.75932 2.13918C10.1194 2.50626 10.3217 3.00412 10.3217 3.52324ZM5.31142 8.61237C4.42042 8.61237 3.5348 8.8175 2.73675 9.31075C1.94022 9.80166 1.36722 10.493 0.967807 11.2509C0.211227 12.6837 2.1657e-08 14.497 2.1657e-08 16.3056V16.3745C2.1657e-08 16.3979 0.0007679 16.4207 0.0030722 16.4434L0.0092173 16.5123C0.0138259 16.571 0.0176665 16.7683 0.0130579 17.2326L0.0092173 17.5583V17.5598C0.0053768 17.9137 2.1657e-08 18.3349 2.1657e-08 18.7906C-4.9936e-05 19.1621 0.0863312 19.5282 0.252052 19.8591C0.417772 20.1899 0.658106 20.476 0.953322 20.6937C1.24854 20.9115 1.59022 21.0548 1.95031 21.1119C2.3104 21.1689 2.67864 21.1381 3.02478 21.022V28.9689C3.024 29.5739 3.25229 30.1559 3.66208 30.5936C4.07188 31.0313 4.63157 31.2909 5.22452 31.3184C5.81747 31.3458 6.39795 31.139 6.84499 30.741C7.29203 30.343 7.57114 29.7844 7.62418 29.1818L8.27092 21.9224H8.53053L9.17804 29.1818C9.22886 29.7863 9.50714 30.3472 9.95458 30.7472C10.402 31.1472 10.9839 31.3552 11.5785 31.3277C12.173 31.3001 12.734 31.0392 13.1441 30.5995C13.5541 30.1598 13.7813 29.5755 13.7782 28.9689V21.0063C14.1259 21.1316 14.4979 21.17 14.8632 21.1184C15.2284 21.0667 15.5762 20.9264 15.8772 20.7093C16.1782 20.4922 16.4237 20.2047 16.5931 19.8708C16.7625 19.5369 16.8508 19.1665 16.8506 18.7906C16.8506 18.3365 16.8452 17.9153 16.8414 17.5614V17.5583L16.8376 17.2326C16.8329 16.7683 16.836 16.571 16.8414 16.5123L16.8475 16.4434C16.8496 16.4204 16.8506 16.3975 16.8506 16.3745V16.3056C16.8506 14.497 16.6386 12.6845 15.8828 11.2509C15.4834 10.4938 14.9104 9.80166 14.1139 9.31075C13.315 8.8175 12.4302 8.61237 11.5384 8.61237H5.31142ZM2.3043 19.5736C2.46116 19.5736 2.61429 19.5248 2.74309 19.4335C2.87189 19.3422 2.9702 19.213 3.02478 19.0631V13.7015H4.56099V28.9689C4.56086 29.1705 4.63705 29.3644 4.77369 29.5102C4.91033 29.656 5.09688 29.7424 5.29449 29.7515C5.4921 29.7606 5.68552 29.6916 5.83448 29.559C5.98344 29.4263 6.07644 29.2402 6.09412 29.0393L6.80538 21.069C6.82262 20.8744 6.91058 20.6935 7.05198 20.5617C7.19338 20.4299 7.37802 20.3567 7.56964 20.3565H9.23335C9.4251 20.3565 9.60992 20.4296 9.75149 20.5614C9.89305 20.6933 9.98112 20.8743 9.99838 21.069L10.7089 29.0393C10.7265 29.2402 10.8195 29.4263 10.9685 29.559C11.1175 29.6916 11.3109 29.7606 11.5085 29.7515C11.7061 29.7424 11.8927 29.656 12.0293 29.5102C12.1659 29.3644 12.2421 29.1705 12.242 28.9689V13.7015H13.7782V18.8086C13.7805 19.0163 13.8637 19.2145 14.0094 19.3596C14.1551 19.5048 14.3514 19.5849 14.5551 19.5826C14.7589 19.5802 14.9533 19.4954 15.0957 19.3469C15.2381 19.1984 15.3167 18.9983 15.3144 18.7906C15.3144 18.3451 15.309 17.9325 15.3052 17.5771V17.5677C15.304 17.4614 15.3027 17.3552 15.3013 17.249C15.2936 16.9575 15.2969 16.6657 15.3113 16.3745L15.3144 16.34V16.3056C15.3144 14.5737 15.1032 13.0791 14.5294 11.9923C14.236 11.4357 13.8389 10.9714 13.3181 10.6504C12.7973 10.3286 12.1967 10.1783 11.5384 10.1783H5.31142C4.65393 10.1783 4.05327 10.3286 3.53173 10.6504C3.01096 10.9714 2.61462 11.4357 2.32043 11.9923C1.74743 13.0791 1.5362 14.5737 1.5362 16.3063V16.34L1.53927 16.3745C1.55233 16.5271 1.55387 16.8129 1.54926 17.249L1.54542 17.5771C1.54158 17.9317 1.5362 18.3451 1.5362 18.7906C1.5362 18.9983 1.61713 19.1974 1.76117 19.3442C1.90522 19.4911 2.10059 19.5736 2.3043 19.5736Z" fill="#3267B1"/>
</svg>
