<svg width="24" height="24" viewBox="0 0 24 24" fill="none" xmlns="http://www.w3.org/2000/svg">
<path d="M8.74777 23C8.24777 23 7.8101 22.8373 7.43477 22.512C7.05943 22.1867 6.83877 21.7743 6.77277 21.275L5.14777 9.125C5.11443 8.825 5.19777 8.56267 5.39777 8.338C5.59777 8.11333 5.84777 8.00067 6.14777 8H17.8478C18.1478 8 18.3978 8.11267 18.5978 8.338C18.7978 8.56333 18.8811 8.82567 18.8478 9.125L17.2228 21.275C17.1561 21.775 16.9351 22.1877 16.5598 22.513C16.1844 22.8383 15.7471 23.0007 15.2478 23H8.74777ZM11.9978 16C12.8311 16 13.5394 15.7083 14.1228 15.125C14.7061 14.5417 14.9978 13.8333 14.9978 13V12C14.9978 11.7167 14.9018 11.479 14.7098 11.287C14.5178 11.095 14.2804 10.9993 13.9978 11C13.7144 11 13.4768 11.096 13.2848 11.288C13.0928 11.48 12.9971 11.7173 12.9978 12V13C12.9978 13.2833 12.9018 13.521 12.7098 13.713C12.5178 13.905 12.2804 14.0007 11.9978 14C11.7144 14 11.4768 13.904 11.2848 13.712C11.0928 13.52 10.9971 13.2827 10.9978 13V12C10.9978 11.7167 10.9018 11.479 10.7098 11.287C10.5178 11.095 10.2804 10.9993 9.99777 11C9.71443 11 9.47677 11.096 9.28477 11.288C9.09277 11.48 8.9971 11.7173 8.99777 12V13C8.99777 13.8333 9.28943 14.5417 9.87277 15.125C10.4561 15.7083 11.1644 16 11.9978 16ZM14.9978 7C14.5811 7 14.2268 6.854 13.9348 6.562C13.6428 6.27 13.4971 5.916 13.4978 5.5C13.4978 5.08333 13.6438 4.729 13.9358 4.437C14.2278 4.145 14.5818 3.99933 14.9978 4C15.4144 4 15.7688 4.146 16.0608 4.438C16.3528 4.73 16.4984 5.084 16.4978 5.5C16.4978 5.91667 16.3518 6.271 16.0598 6.563C15.7678 6.855 15.4138 7.00067 14.9978 7ZM9.99777 6C9.29777 6 8.7061 5.75833 8.22277 5.275C7.73943 4.79167 7.49777 4.2 7.49777 3.5C7.49777 2.8 7.73943 2.20833 8.22277 1.725C8.7061 1.24167 9.29777 1 9.99777 1C10.6978 1 11.2894 1.24167 11.7728 1.725C12.2561 2.20833 12.4978 2.8 12.4978 3.5C12.4978 4.2 12.2561 4.79167 11.7728 5.275C11.2894 5.75833 10.6978 6 9.99777 6Z" fill="#717171"/>
</svg>
