<svg width="29" height="28" viewBox="0 0 29 28" fill="none" xmlns="http://www.w3.org/2000/svg">
<path d="M0.5 28V26.0689H6.499L6.5 7.72376H4.5C3.525 7.72376 3.145 6.53132 3.89 5.99159L3.986 5.93076L13.986 0.137546C14.121 0.0593382 14.274 0.0129922 14.431 0.00237158C14.589 -0.00824992 14.747 0.016854 14.892 0.0767175L15.014 0.137546L25.014 5.93076C25.851 6.41449 25.541 7.62527 24.614 7.71796L24.5 7.72376H22.5L22.499 26.0689H28.5V28H0.5ZM20.499 26.0689L20.5 7.72376H8.5L8.499 26.0689H10.5V24.1379C10.5 23.1298 10.908 22.1624 11.636 21.4411C12.365 20.7199 13.357 20.3018 14.4 20.2767C15.443 20.2516 16.455 20.6214 17.22 21.3059C17.985 21.9915 18.443 22.9387 18.495 23.9448L18.5 24.1379V26.0689H20.499ZM14.5 22.2068C13.995 22.2068 13.509 22.3902 13.139 22.7214C12.77 23.0536 12.543 23.5074 12.505 23.993L12.5 24.1379V26.0689H16.5V24.1379C16.5 23.6261 16.289 23.1347 15.914 22.7726C15.539 22.4105 15.03 22.2068 14.5 22.2068ZM14.5 11.5859C14.765 11.5859 15.02 11.6873 15.207 11.8688C15.395 12.0494 15.5 12.2956 15.5 12.5514C15.5 12.8073 15.395 13.0535 15.207 13.2341C15.02 13.4156 14.765 13.517 14.5 13.517C14.235 13.517 13.98 13.4156 13.793 13.2341C13.605 13.0535 13.5 12.8073 13.5 12.5514C13.5 12.2956 13.605 12.0494 13.793 11.8688C13.98 11.6873 14.235 11.5859 14.5 11.5859ZM14.5 2.09082L8.109 5.79269H20.89L14.5 2.09082Z" fill="white"/>
</svg>
