<svg width="30" height="30" viewBox="0 0 30 30" fill="none" xmlns="http://www.w3.org/2000/svg">
<path d="M29.5 8.14716C29.0906 8.14716 28.6799 8.23057 28.334 8.4391C26.3889 9.61639 26.3889 11.2215 26.3889 12.3177V12.9135H20.7889M10.8333 16.4883H29.5H10.8333ZM20.1667 16.4883V29V16.4883ZM14.5667 28.4042C13.3222 28.4042 12.3889 26.6168 12.3889 26.6168C11.4556 24.8294 11.4556 23.6378 11.4556 21.8505V20.0631H1.5V19.7652L3.89182 10.8342C4.09763 10.0655 4.56471 9.38422 5.21947 8.89772C5.87422 8.41122 6.67942 8.14717 7.50818 8.14716H8.96667L10.7674 11.5956C10.9741 11.9918 11.2921 12.325 11.6855 12.5577C12.079 12.7905 12.5324 12.9137 12.9949 12.9135H18.3M8.78 5.76398C8.78 5.76398 6.78889 4.57239 6.78889 3.0829C6.78889 2.80937 6.84515 2.53852 6.95447 2.28581C7.06379 2.0331 7.22402 1.80348 7.42602 1.61007C7.62801 1.41665 7.86781 1.26323 8.13173 1.15855C8.39565 1.05388 8.67852 1 8.96418 1C9.24984 1 9.53271 1.05388 9.79662 1.15855C10.0605 1.26323 10.3003 1.41665 10.5023 1.61007C10.7043 1.80348 10.8646 2.0331 10.9739 2.28581C11.0832 2.53852 11.1395 2.80937 11.1395 3.0829C11.1395 4.57239 9.15333 5.76398 9.15333 5.76398H8.78Z" fill="#3267B1"/>
<path d="M29.5 8.14716C29.0906 8.14716 28.6799 8.23057 28.334 8.4391C26.3889 9.61639 26.3889 11.2215 26.3889 12.3177V12.9135H20.7889M10.8333 16.4883H29.5M20.1667 16.4883V29M14.5667 28.4042C13.3222 28.4042 12.3889 26.6168 12.3889 26.6168C11.4556 24.8294 11.4556 23.6378 11.4556 21.8505V20.0631H1.5V19.7652L3.89182 10.8342C4.09763 10.0655 4.56471 9.38422 5.21947 8.89772C5.87422 8.41123 6.67942 8.14717 7.50818 8.14716H8.96667L10.7674 11.5956C10.9741 11.9918 11.2921 12.325 11.6855 12.5577C12.079 12.7905 12.5324 12.9137 12.9949 12.9135H18.3M8.78 5.76398C8.78 5.76398 6.78889 4.57239 6.78889 3.0829C6.78889 2.80937 6.84515 2.53852 6.95447 2.28581C7.06379 2.0331 7.22402 1.80348 7.42602 1.61007C7.62801 1.41665 7.86781 1.26323 8.13173 1.15855C8.39565 1.05388 8.67852 1 8.96418 1C9.24984 1 9.53271 1.05388 9.79662 1.15855C10.0605 1.26323 10.3003 1.41665 10.5023 1.61007C10.7043 1.80348 10.8646 2.0331 10.9739 2.28581C11.0832 2.53852 11.1395 2.80937 11.1395 3.0829C11.1395 4.57239 9.15333 5.76398 9.15333 5.76398H8.78Z" stroke="white" stroke-width="2"/>
</svg>
