<svg width="24" height="24" viewBox="0 0 24 24" fill="none" xmlns="http://www.w3.org/2000/svg">
<path d="M15 0.75C15 0.551088 15.079 0.360322 15.2197 0.21967C15.3603 0.0790176 15.5511 0 15.75 0L21.75 0C21.9489 0 22.1397 0.0790176 22.2803 0.21967C22.421 0.360322 22.5 0.551088 22.5 0.75V8.25C22.5 8.44891 22.421 8.63968 22.2803 8.78033C22.1397 8.92098 21.9489 9 21.75 9H19.5V21.75C19.5 21.9489 19.421 22.1397 19.2803 22.2803C19.1397 22.421 18.9489 22.5 18.75 22.5C18.5511 22.5 18.3603 22.421 18.2197 22.2803C18.079 22.1397 18 21.9489 18 21.75V9H15.75C15.5511 9 15.3603 8.92098 15.2197 8.78033C15.079 8.63968 15 8.44891 15 8.25V0.75ZM7.9785 3H13.5V4.5H7.9785C7.61387 4.49992 7.2617 4.63265 6.98783 4.87339C6.71397 5.11412 6.53717 5.44637 6.4905 5.808L6.078 9H13.6275C13.7827 9.43887 14.0701 9.81881 14.4503 10.0875C14.8304 10.3561 15.2845 10.5002 15.75 10.5H16.5V12.441C16.3305 12.3803 16.1488 12.3614 15.9704 12.3857C15.7919 12.41 15.622 12.477 15.4749 12.5808C15.3278 12.6847 15.2078 12.8224 15.1252 12.9824C15.0425 13.1424 14.9996 13.3199 15 13.5C14.9999 13.68 15.0431 13.8573 15.1258 14.0171C15.2086 14.1769 15.3285 14.3145 15.4755 14.4183C15.6225 14.5221 15.7923 14.589 15.9706 14.6135C16.1489 14.638 16.3304 14.6193 16.5 14.559V18H5.25C4.65326 18 4.08097 17.7629 3.65901 17.341C3.23705 16.919 3 16.3467 3 15.75V11.25C2.99993 10.7755 3.1499 10.313 3.42847 9.92886C3.70704 9.54469 4.09994 9.25842 4.551 9.111L4.566 9H3.75C3.55109 9 3.36032 8.92098 3.21967 8.78033C3.07902 8.63968 3 8.44891 3 8.25C3 8.05109 3.07902 7.86032 3.21967 7.71967C3.36032 7.57902 3.55109 7.5 3.75 7.5H4.7595L5.0025 5.616C5.09588 4.89249 5.44969 4.22779 5.99773 3.74628C6.54577 3.26478 7.25048 2.99947 7.98 3H7.9785ZM7.875 14.6235C8.02254 14.6235 8.16864 14.5944 8.30494 14.538C8.44125 14.4815 8.56511 14.3988 8.66943 14.2944C8.77376 14.1901 8.85652 14.0663 8.91298 13.9299C8.96944 13.7936 8.9985 13.6475 8.9985 13.5C8.9985 13.3525 8.96944 13.2064 8.91298 13.0701C8.85652 12.9337 8.77376 12.8099 8.66943 12.7056C8.56511 12.6012 8.44125 12.5185 8.30494 12.462C8.16864 12.4056 8.02254 12.3765 7.875 12.3765C7.57703 12.3765 7.29126 12.4949 7.08057 12.7056C6.86987 12.9163 6.7515 13.202 6.7515 13.5C6.7515 13.798 6.86987 14.0837 7.08057 14.2944C7.29126 14.5051 7.57703 14.6235 7.875 14.6235ZM7.5 19.5H5.25V19.875C5.25 20.1734 5.36853 20.4595 5.5795 20.6705C5.79048 20.8815 6.07663 21 6.375 21C6.67337 21 6.95952 20.8815 7.1705 20.6705C7.38147 20.4595 7.5 20.1734 7.5 19.875V19.5Z" fill="#717171"/>
</svg>
