<svg width="24" height="24" viewBox="0 0 24 24" fill="none" xmlns="http://www.w3.org/2000/svg">
<path d="M4.5 12C5.88071 12 7 10.8807 7 9.5C7 8.11929 5.88071 7 4.5 7C3.11929 7 2 8.11929 2 9.5C2 10.8807 3.11929 12 4.5 12Z" fill="#717171"/>
<path d="M9 8C10.3807 8 11.5 6.88071 11.5 5.5C11.5 4.11929 10.3807 3 9 3C7.61929 3 6.5 4.11929 6.5 5.5C6.5 6.88071 7.61929 8 9 8Z" fill="#717171"/>
<path d="M15 8C16.3807 8 17.5 6.88071 17.5 5.5C17.5 4.11929 16.3807 3 15 3C13.6193 3 12.5 4.11929 12.5 5.5C12.5 6.88071 13.6193 8 15 8Z" fill="#717171"/>
<path d="M19.5 12C20.8807 12 22 10.8807 22 9.5C22 8.11929 20.8807 7 19.5 7C18.1193 7 17 8.11929 17 9.5C17 10.8807 18.1193 12 19.5 12Z" fill="#717171"/>
<path d="M17.3387 14.86C16.4687 13.84 15.7387 12.97 14.8587 11.95C14.3987 11.41 13.8087 10.87 13.1087 10.63C12.9987 10.59 12.8887 10.56 12.7787 10.54C12.5287 10.5 12.2587 10.5 11.9987 10.5C11.7387 10.5 11.4687 10.5 11.2087 10.55C11.0987 10.57 10.9887 10.6 10.8787 10.64C10.1787 10.88 9.59868 11.42 9.12868 11.96C8.25868 12.98 7.52868 13.85 6.64868 14.87C5.33868 16.18 3.72868 17.63 4.02868 19.66C4.31868 20.68 5.04868 21.69 6.35868 21.98C7.08868 22.13 9.41868 21.54 11.8987 21.54H12.0787C14.5587 21.54 16.8887 22.12 17.6187 21.98C18.9287 21.69 19.6587 20.67 19.9487 19.66C20.2587 17.62 18.6487 16.17 17.3387 14.86Z" fill="#717171"/>
</svg>
