<svg width="24" height="24" viewBox="0 0 24 24" fill="none" xmlns="http://www.w3.org/2000/svg">
<path d="M8 12V10H10V12H8ZM14 12V10H16V12H14ZM3 22V14H4V10C4 8.9 4.20833 7.86233 4.625 6.887C5.04167 5.91167 5.61267 5.06167 6.338 4.337C7.06267 3.61233 7.91267 3.04167 8.888 2.625C9.86333 2.20833 10.9007 2 12 2C13.1 2 14.1377 2.20833 15.113 2.625C16.0883 3.04167 16.9383 3.61267 17.663 4.338C18.3877 5.06267 18.9583 5.91267 19.375 6.888C19.7917 7.86333 20 8.90067 20 10V14H21V22H3ZM5 20H7V16H5V20ZM9 20H11V16H9V20ZM6 14H11V4.075C9.56667 4.30833 8.375 4.979 7.425 6.087C6.475 7.195 6 8.49933 6 10V14ZM13 14H18V10C18 8.5 17.525 7.19567 16.575 6.087C15.625 4.97833 14.4333 4.30767 13 4.075V14ZM13 20H15V16H13V20ZM17 20H19V16H17V20Z" fill="#717171"/>
</svg>
