<svg width="50" height="50" viewBox="0 0 50 50" fill="none" xmlns="http://www.w3.org/2000/svg">
<path d="M50 0V50H44.4444V30H36.1111V12.5C36.1111 9.18479 37.5744 6.00537 40.1791 3.66117C42.7837 1.31696 46.3164 0 50 0ZM16.6667 29.75V50H11.1111V29.75C7.97447 29.1728 5.15553 27.6384 3.13096 25.4063C1.10638 23.1742 0.000391849 20.3814 0 17.5V2.5H5.55556V20H11.1111V2.5H16.6667V20H22.2222V2.5H27.7778V17.5C27.7774 20.3814 26.6714 23.1742 24.6468 25.4063C22.6222 27.6384 19.8033 29.1728 16.6667 29.75Z" fill="#3267B1"/>
</svg>
