<svg width="50" height="50" viewBox="0 0 50 50" fill="none" xmlns="http://www.w3.org/2000/svg">
<path d="M24.9626 8.62192H25.0698C25.534 8.62192 25.909 8.24706 25.909 7.78293V4.15923H27.7126V4.87326C27.7126 5.46234 28.1948 5.94431 28.784 5.94431H32.4983C32.784 5.94431 33.0162 5.71225 33.0162 5.42663V2.89182C33.0162 2.75453 32.9616 2.62286 32.8645 2.52577C32.7674 2.42869 32.6357 2.37415 32.4983 2.37415H31.2483V1.30311C31.2483 0.910389 30.9269 0.589075 30.534 0.589075H25.8715C25.8182 0.418243 25.7116 0.268931 25.5674 0.162951C25.4231 0.0569695 25.2488 -0.000127445 25.0698 2.13602e-07H24.9626C24.74 2.13602e-07 24.5265 0.0883931 24.3691 0.245733C24.2118 0.403074 24.1233 0.616473 24.1233 0.838986V7.78293C24.1233 8.24706 24.4983 8.62192 24.9626 8.62192ZM24.1108 23.1417C24.1074 23.1097 24.1056 23.0775 24.1055 23.0453V20.5284C24.1055 20.0286 24.4983 19.6358 24.9983 19.6358C25.4983 19.6358 25.8912 20.0286 25.8912 20.5284V22.849L28.284 25.241C28.6412 25.598 28.6412 26.1514 28.284 26.5084C28.0876 26.6869 27.8733 26.7762 27.6412 26.7762C27.5241 26.7776 27.408 26.7545 27.3003 26.7084C27.1927 26.6623 27.0959 26.5941 27.0162 26.5084L24.3733 23.8665C24.278 23.7731 24.2049 23.6595 24.1594 23.534C24.114 23.4086 24.0974 23.2745 24.1108 23.1417Z" fill="#3267B1"/>
<path d="M39.2679 24.9194L39.2857 21.6706C39.2857 21.1351 39.0714 20.6353 38.6964 20.2604L34.4821 16.0476H45.0714C45.8929 16.0476 46.625 16.5474 46.9286 17.315L49.9929 24.9909H50V49.9819H37.5179V49.9998H30.3571V49.9819H30.375V40.521C30.375 39.8248 29.8214 39.2715 29.125 39.2715H20.8214C20.125 39.2715 19.5714 39.8248 19.5714 40.521V49.9819H19.6429V49.9998H12.5179V49.8373L12.5 49.9819H0V24.9909H0.00714276L3.07143 17.315C3.375 16.5474 4.10714 16.0476 4.92857 16.0476H15.5179L11.3036 20.2604C10.9286 20.6353 10.7143 21.1529 10.7143 21.6706V24.9194H10.7321C10.7321 24.9373 10.7286 24.9498 10.7232 24.9641C10.7177 24.9783 10.7147 24.9934 10.7143 25.0087V25.8834C10.7143 26.1201 10.8084 26.3471 10.9758 26.5145C11.1432 26.6819 11.3703 26.7759 11.6071 26.7759C11.8439 26.7759 12.071 26.6819 12.2385 26.5145C12.4059 26.3471 12.5 26.1201 12.5 25.8834V25.0087C12.4996 24.9934 12.4966 24.9783 12.4911 24.9641C12.4875 24.9498 12.4821 24.9373 12.4821 24.9194H12.5V22.7595C12.5 22.6703 12.5071 22.5828 12.5179 22.4971C12.5428 22.0637 12.7273 21.6549 13.0357 21.3493L24.0179 10.5317C24.1489 10.4 24.3048 10.2955 24.4764 10.2242C24.648 10.1529 24.832 10.1162 25.0179 10.1162C25.2037 10.1162 25.3877 10.1529 25.5593 10.2242C25.7309 10.2955 25.8868 10.4 26.0179 10.5317L37 21.3493C37.3214 21.6706 37.5 22.099 37.5179 22.5453V26.0619C37.5619 26.2788 37.685 26.4716 37.8633 26.6029C38.0416 26.7342 38.2623 26.7946 38.4826 26.7723C38.7029 26.7501 38.9071 26.6468 39.0555 26.4825C39.2039 26.3183 39.2859 26.1047 39.2857 25.8834V24.9944C39.2857 24.9641 39.2839 24.9355 39.2679 24.9194ZM25 28.561C26.4213 28.561 27.7843 27.9966 28.7893 26.992C29.7943 25.9873 30.3589 24.6248 30.3589 23.204C30.3589 21.7832 29.7943 20.4206 28.7893 19.416C27.7843 18.4114 26.4213 17.847 25 17.847C23.5787 17.847 22.2157 18.4114 21.2107 19.416C20.2057 20.4206 19.6411 21.7832 19.6411 23.204C19.6411 24.6248 20.2057 25.9873 21.2107 26.992C22.2157 27.9966 23.5787 28.561 25 28.561ZM12.5179 25.1337V25.0087H12.5018L12.5179 25.1337ZM2.28571 33.9162H4.85714C5.14286 33.9162 5.35714 33.702 5.35714 33.4164V29.0608C5.35714 28.7931 5.125 28.561 4.85714 28.561H2.28571C2.01786 28.561 1.78571 28.7931 1.78571 29.0608V33.4164C1.78571 33.6842 2.01786 33.9162 2.28571 33.9162ZM10.2143 33.9162C10.5 33.9162 10.7143 33.702 10.7143 33.4164V29.0608C10.7143 28.7931 10.4821 28.561 10.2143 28.561H7.64286C7.375 28.561 7.14286 28.7931 7.14286 29.0608V33.4164C7.14286 33.6842 7.375 33.9162 7.64286 33.9162H10.2143ZM4.85714 41.0565C5.14286 41.0565 5.35714 40.8423 5.35714 40.5567V36.2011C5.35714 35.9334 5.125 35.7013 4.85714 35.7013H2.28571C2.01786 35.7013 1.78571 35.9334 1.78571 36.2011V40.5567C1.78571 40.8245 2.01786 41.0565 2.28571 41.0565H4.85714ZM10.2143 41.0565C10.5 41.0565 10.7143 40.8423 10.7143 40.5567V36.2011C10.7143 35.9334 10.4821 35.7013 10.2143 35.7013H7.64286C7.375 35.7013 7.14286 35.9334 7.14286 36.2011V40.5567C7.14286 40.8245 7.375 41.0565 7.64286 41.0565H10.2143ZM39.2857 33.4164C39.2857 33.6842 39.5179 33.9162 39.7857 33.9162H42.3571C42.6429 33.9162 42.8571 33.702 42.8571 33.4164V29.0608C42.8571 28.7931 42.625 28.561 42.3571 28.561H39.7857C39.5179 28.561 39.2857 28.7931 39.2857 29.0608V33.4164ZM48.2143 33.4164V29.0608C48.2143 28.7931 47.9821 28.561 47.7143 28.561H45.1429C44.875 28.561 44.6429 28.7931 44.6429 29.0608V33.4164C44.6429 33.6842 44.875 33.9162 45.1429 33.9162H47.7143C48 33.9162 48.2143 33.702 48.2143 33.4164ZM42.8571 40.5567V36.2011C42.8571 35.9334 42.625 35.7013 42.3571 35.7013H39.7857C39.5179 35.7013 39.2857 35.9334 39.2857 36.2011V40.5567C39.2857 40.8245 39.5179 41.0565 39.7857 41.0565H42.3571C42.6429 41.0565 42.8571 40.8423 42.8571 40.5567ZM48.2143 40.5567V36.2011C48.2143 35.9334 47.9821 35.7013 47.7143 35.7013H45.1429C44.875 35.7013 44.6429 35.9334 44.6429 36.2011V40.5567C44.6429 40.8245 44.875 41.0565 45.1429 41.0565H47.7143C48 41.0565 48.2143 40.8423 48.2143 40.5567Z" fill="#3267B1"/>
</svg>
