<svg width="29" height="28" viewBox="0 0 29 28" fill="none" xmlns="http://www.w3.org/2000/svg">
<path d="M27.6897 0L28.5 1.67472L26.2822 2.82117V26.1267C26.2822 27.1139 25.5427 27.9232 24.6046 27.9944L24.4696 28H4.53043C3.57516 28 2.79209 27.2357 2.72321 26.2663L2.71778 26.1267V14.9975L1.31025 15.7244L0.5 14.0496L2.71778 12.9041V5.52057H4.53043V11.9675L27.6897 0ZM24.4696 3.75781L4.53043 14.0609V26.1267H9.96838V16.7603C9.96838 15.7731 10.7079 14.9638 11.646 14.8917L11.781 14.887H17.219C18.1742 14.887 18.9573 15.6513 19.0271 16.6207L19.0316 16.7603V26.1267H24.4696V3.75781ZM17.219 16.7603H11.781V26.1267H17.219V16.7603ZM21.7506 9.26714C22.2509 9.26714 22.6569 9.68676 22.6569 10.2038C22.6569 10.7208 22.2509 11.1404 21.7506 11.1404C21.2503 11.1404 20.8443 10.7208 20.8443 10.2038C20.8443 9.68676 21.2503 9.26714 21.7506 9.26714Z" fill="white"/>
</svg>
