<svg width="50" height="50" viewBox="0 0 50 50" fill="none" xmlns="http://www.w3.org/2000/svg">
<path d="M13.4244 31.9305C12.1497 32.3997 10.7929 32.6033 9.437 32.5292C8.08106 32.455 6.7545 32.1044 5.53849 31.499C4.32248 30.8936 3.2426 30.0461 2.36493 29.0083C1.48726 27.9705 0.830257 26.7642 0.434128 25.4633C0.0379981 24.1624 -0.0889267 22.7942 0.0611201 21.4425C0.211167 20.0908 0.63503 18.7839 1.30677 17.6019C1.97851 16.4199 2.884 15.3876 3.96783 14.5682C5.05166 13.7488 6.29104 13.1595 7.61012 12.8364V12.5115C7.60846 10.8252 8.03275 9.16586 8.8435 7.68791C9.65425 6.20996 10.8251 4.96144 12.2471 4.05852C13.6692 3.1556 15.2961 2.62762 16.9767 2.52373C18.6572 2.41983 20.3366 2.74339 21.8587 3.46429C22.9051 2.08131 24.3385 1.04127 25.9767 0.476426C27.6148 -0.0884169 29.3837 -0.152536 31.0584 0.292224C32.733 0.736984 34.2377 1.67052 35.3812 2.97412C36.5246 4.27772 37.2552 5.89247 37.4798 7.61301C38.7461 7.85668 39.9059 8.48736 40.7996 9.41827C41.6934 10.3492 42.2771 11.5346 42.4706 12.8114C43.8209 13.1541 45.0846 13.7761 46.1804 14.6374C47.2762 15.4986 48.18 16.5801 48.8335 17.8121C49.4869 19.0442 49.8757 20.3996 49.9747 21.7912C50.0738 23.1828 49.8809 24.5797 49.4085 25.8921C48.9361 27.2046 48.1947 28.4035 47.2319 29.4117C46.2691 30.4199 45.1063 31.2151 43.8182 31.7462C42.5301 32.2773 41.1453 32.5325 39.7529 32.4954C38.3604 32.4583 36.9911 32.1296 35.7331 31.5307C34.3913 33.7127 32.4145 35.4309 30.0685 36.4542V45.0015L35.0593 47.5008V50H15.0963V47.5008L20.087 45.0015V37.5038L13.4244 31.9305ZM12.6009 25.0077L20.087 32.5054V25.0077H12.6009Z" fill="#3267B1"/>
</svg>
