<svg width="24" height="24" viewBox="0 0 24 24" fill="none" xmlns="http://www.w3.org/2000/svg">
<path d="M7.19844 3.59961C6.24366 3.59961 5.32798 3.97889 4.65285 4.65403C3.97772 5.32916 3.59844 6.24483 3.59844 7.19961V9.59961H20.3984V7.19961C20.3984 6.24483 20.0192 5.32916 19.344 4.65403C18.6689 3.97889 17.7532 3.59961 16.7984 3.59961H7.19844ZM16.7984 20.3996H8.29644C8.20667 20.1464 8.06152 19.9164 7.87156 19.7265C7.6816 19.5365 7.45164 19.3914 7.19844 19.3016V17.5952C7.91667 17.2545 8.52347 16.717 8.94832 16.0451C9.37316 15.3732 9.5986 14.5946 9.59844 13.7996V11.3996C9.59836 11.1952 9.56346 10.9923 9.49524 10.7996H20.3984V16.7996C20.3984 17.7544 20.0192 18.6701 19.344 19.3452C18.6689 20.0203 17.7532 20.3996 16.7984 20.3996ZM8.09844 7.49961C7.98025 7.49961 7.86322 7.47633 7.75402 7.4311C7.64483 7.38587 7.54561 7.31958 7.46204 7.23601C7.37847 7.15243 7.31218 7.05322 7.26695 6.94402C7.22172 6.83483 7.19844 6.7178 7.19844 6.59961C7.19844 6.48142 7.22172 6.36439 7.26695 6.25519C7.31218 6.146 7.37847 6.04679 7.46204 5.96321C7.54561 5.87964 7.64483 5.81335 7.75402 5.76812C7.86322 5.72289 7.98025 5.69961 8.09844 5.69961C8.33713 5.69961 8.56605 5.79443 8.73483 5.96321C8.90362 6.132 8.99844 6.36091 8.99844 6.59961C8.99844 6.8383 8.90362 7.06722 8.73483 7.23601C8.56605 7.40479 8.33713 7.49961 8.09844 7.49961ZM11.9984 6.59961C11.9984 6.44048 12.0617 6.28787 12.1742 6.17535C12.2867 6.06282 12.4393 5.99961 12.5984 5.99961H16.1984C16.3576 5.99961 16.5102 6.06282 16.6227 6.17535C16.7352 6.28787 16.7984 6.44048 16.7984 6.59961C16.7984 6.75874 16.7352 6.91135 16.6227 7.02387C16.5102 7.1364 16.3576 7.19961 16.1984 7.19961H12.5984C12.4393 7.19961 12.2867 7.1364 12.1742 7.02387C12.0617 6.91135 11.9984 6.75874 11.9984 6.59961ZM2.99844 10.7996C2.83931 10.7996 2.6867 10.8628 2.57417 10.9753C2.46165 11.0879 2.39844 11.2405 2.39844 11.3996V13.7996C2.3983 14.4912 2.63711 15.1616 3.07445 15.6974C3.5118 16.2331 4.12082 16.6013 4.79844 16.7396V20.3996H4.19844C4.03931 20.3996 3.8867 20.4628 3.77417 20.5753C3.66165 20.6879 3.59844 20.8405 3.59844 20.9996C3.59844 21.1587 3.66165 21.3114 3.77417 21.4239C3.8867 21.5364 4.03931 21.5996 4.19844 21.5996H6.59844C6.75757 21.5996 6.91018 21.5364 7.0227 21.4239C7.13522 21.3114 7.19844 21.1587 7.19844 20.9996C7.19844 20.8405 7.13522 20.6879 7.0227 20.5753C6.91018 20.4628 6.75757 20.3996 6.59844 20.3996H5.99844V16.7396C6.67606 16.6013 7.28508 16.2331 7.72242 15.6974C8.15977 15.1616 8.39858 14.4912 8.39844 13.7996V11.3996C8.39844 11.2405 8.33522 11.0879 8.2227 10.9753C8.11018 10.8628 7.95757 10.7996 7.79844 10.7996H2.99844Z" fill="#717171"/>
</svg>
