<svg width="24" height="24" viewBox="0 0 24 24" fill="none" xmlns="http://www.w3.org/2000/svg">
<g clip-path="url(#clip0_714_379)">
<path d="M11 2C9.67392 2 8.40215 2.52678 7.46447 3.46447C6.52678 4.40215 6 5.67392 6 7C6 8.32608 6.52678 9.59785 7.46447 10.5355C8.40215 11.4732 9.67392 12 11 12C12.3261 12 13.5979 11.4732 14.5355 10.5355C15.4732 9.59785 16 8.32608 16 7C16 5.67392 15.4732 4.40215 14.5355 3.46447C13.5979 2.52678 12.3261 2 11 2ZM11 13C8.605 13 6.425 13.694 4.822 14.671C4.022 15.161 3.338 15.736 2.844 16.361C2.358 16.977 2 17.713 2 18.5C2 19.345 2.411 20.011 3.003 20.486C3.563 20.936 4.302 21.234 5.087 21.442C6.665 21.859 8.771 22 11 22L11.685 21.995C11.8525 21.9927 12.0167 21.9484 12.1626 21.8661C12.3085 21.7838 12.4313 21.6662 12.5199 21.524C12.6085 21.3819 12.66 21.2198 12.6696 21.0525C12.6792 20.8853 12.6467 20.7184 12.575 20.567C12.1949 19.7647 11.9985 18.8878 12 18C12 16.748 12.383 15.588 13.037 14.627C13.1342 14.4842 13.1928 14.3186 13.207 14.1465C13.2212 13.9743 13.1905 13.8014 13.118 13.6446C13.0455 13.4878 12.9336 13.3524 12.7932 13.2517C12.6528 13.151 12.4888 13.0884 12.317 13.07C11.887 13.024 11.447 13 11 13ZM18.316 14.051C18.1109 13.9827 17.8891 13.9827 17.684 14.051L14.684 15.051C14.4848 15.1173 14.3115 15.2447 14.1888 15.415C14.066 15.5854 13.9999 15.79 14 16V17.671C13.9999 18.7406 14.3942 19.7727 15.1075 20.5698C15.8207 21.3668 16.8029 21.8729 17.866 21.991C17.956 22.001 18.045 22.001 18.134 21.991C19.1971 21.8729 20.1793 21.3668 20.8925 20.5698C21.6058 19.7727 22.0001 18.7406 22 17.671V16C22.0001 15.79 21.934 15.5854 21.8112 15.415C21.6885 15.2447 21.5152 15.1173 21.316 15.051L18.316 14.051Z" fill="#717171"/>
</g>
<defs>
<clipPath id="clip0_714_379">
<rect width="24" height="24" fill="white"/>
</clipPath>
</defs>
</svg>
