<svg width="24" height="24" viewBox="0 0 24 24" fill="none" xmlns="http://www.w3.org/2000/svg">
<g clip-path="url(#clip0_714_373)">
<path d="M11.9994 16.5C12.3972 16.5 12.7787 16.658 13.06 16.9393C13.3413 17.2207 13.4994 17.6022 13.4994 18C13.4994 18.3978 13.3413 18.7794 13.06 19.0607C12.7787 19.342 12.3972 19.5 11.9994 19.5C11.6015 19.5 11.22 19.342 10.9387 19.0607C10.6574 18.7794 10.4994 18.3978 10.4994 18C10.4994 17.6022 10.6574 17.2207 10.9387 16.9393C11.22 16.658 11.6015 16.5 11.9994 16.5ZM11.9994 12.5C12.7216 12.4994 13.4369 12.6412 14.1043 12.9175C14.7716 13.1938 15.3779 13.599 15.8884 14.11C16.1615 14.3816 16.3196 14.7479 16.3301 15.1329C16.3405 15.518 16.2025 15.8923 15.9445 16.1783C15.6865 16.4643 15.3283 16.6401 14.9443 16.6693C14.5602 16.6985 14.1796 16.5788 13.8814 16.335L13.7674 16.232C13.5356 15.9993 13.26 15.8149 12.9565 15.6892C12.6531 15.5636 12.3278 15.4993 11.9994 15.5C11.3774 15.5 10.8104 15.725 10.3724 16.101L10.2324 16.232C9.9511 16.5134 9.56957 16.6715 9.17172 16.6716C8.77386 16.6717 8.39226 16.5138 8.11086 16.2325C7.82947 15.9512 7.67133 15.5697 7.67123 15.1719C7.67114 14.774 7.8291 14.3924 8.11036 14.111C8.62067 13.5997 9.22689 13.1943 9.89426 12.9178C10.5616 12.6414 11.277 12.4994 11.9994 12.5ZM11.9994 8.50001C14.6224 8.50001 16.9994 9.56501 18.7164 11.283C18.8637 11.4203 18.9819 11.5859 19.0639 11.7699C19.1459 11.9539 19.19 12.1526 19.1935 12.354C19.1971 12.5554 19.16 12.7554 19.0846 12.9422C19.0092 13.129 18.8969 13.2986 18.7544 13.4411C18.612 13.5835 18.4423 13.6958 18.2556 13.7713C18.0688 13.8467 17.8687 13.8837 17.6673 13.8802C17.4659 13.8766 17.2673 13.8326 17.0833 13.7506C16.8993 13.6686 16.7337 13.5504 16.5964 13.403C15.9934 12.7984 15.2769 12.3189 14.4879 11.9924C13.699 11.6658 12.8532 11.4984 11.9994 11.5C11.1456 11.4987 10.3 11.6662 9.51121 11.993C8.72244 12.3198 8.00608 12.7993 7.40336 13.404C7.1221 13.6854 6.74057 13.8435 6.34272 13.8436C5.94486 13.8437 5.56326 13.6858 5.28186 13.4045C5.00047 13.1232 4.84233 12.7417 4.84223 12.3439C4.84214 11.946 5.0001 11.5644 5.28136 11.283C6.16271 10.3996 7.20989 9.69898 8.36276 9.22139C9.51563 8.7438 10.7515 8.49865 11.9994 8.50001ZM11.9994 4.50001C15.7264 4.50001 19.1044 6.01301 21.5454 8.45401C21.6846 8.59334 21.7951 8.75874 21.8704 8.94076C21.9458 9.12278 21.9845 9.31786 21.9845 9.51486C21.9844 9.71186 21.9456 9.90692 21.8702 10.0889C21.7947 10.2709 21.6842 10.4362 21.5449 10.5755C21.4055 10.7148 21.2401 10.8252 21.0581 10.9006C20.8761 10.9759 20.681 11.0147 20.484 11.0146C20.287 11.0146 20.0919 10.9757 19.91 10.9003C19.728 10.8249 19.5626 10.7143 19.4234 10.575C18.4496 9.59845 17.2925 8.82404 16.0184 8.29631C14.7443 7.76859 13.3784 7.49796 11.9994 7.50001C9.09936 7.50001 6.47636 8.67401 4.57436 10.575C4.43662 10.7207 4.27107 10.8373 4.0875 10.9179C3.90393 10.9985 3.70606 11.0415 3.50559 11.0444C3.30511 11.0472 3.1061 11.0098 2.92033 10.9344C2.73455 10.859 2.56577 10.7472 2.42396 10.6054C2.28216 10.4637 2.17021 10.295 2.09473 10.1092C2.01925 9.92347 1.98177 9.72448 1.98452 9.52401C1.98726 9.32353 2.03016 9.12564 2.11069 8.94203C2.19122 8.75842 2.30774 8.59282 2.45336 8.45501C3.70563 7.19956 5.1936 6.20388 6.83179 5.52516C8.46999 4.84644 10.2261 4.49805 11.9994 4.50001Z" fill="#717171"/>
</g>
<defs>
<clipPath id="clip0_714_373">
<rect width="24" height="24" fill="white"/>
</clipPath>
</defs>
</svg>
